<svg width="1008" height="192" viewBox="0 0 1008 192" fill="none" xmlns="http://www.w3.org/2000/svg">
<g clip-path="url(#clip0_5685_187)">
<path d="M0.589966 135.77V44.8224H29.4159C48.1877 44.8224 62.2687 55.9918 62.2687 75.2148C62.2687 94.4378 48.4091 106.05 29.4159 106.05H18.2465V135.77H0.589966ZM18.2465 89.0659H28.522C37.461 89.0659 43.9396 84.1538 43.9396 75.2148C43.9396 66.2759 37.461 61.5851 28.522 61.5851H18.2465V89.0744V89.0659ZM268.528 75.8789H285.061V135.77H268.528V75.8789ZM277.016 67.8338C271.21 67.8338 266.741 63.3643 266.741 57.7796C266.741 52.1949 271.21 47.5041 277.016 47.5041C282.822 47.5041 287.292 51.9736 287.292 57.7796C287.292 63.5857 282.822 67.8338 277.016 67.8338ZM243.721 100.457C243.721 93.9781 240.145 89.9513 234.56 89.9513C228.082 89.9513 224.728 93.9781 224.728 100.678V135.761H208.195V100.457C208.195 93.9781 204.619 89.9513 199.035 89.9513C192.556 89.9513 189.202 93.9781 189.202 100.678V135.761H172.669V75.8789H187.193L188.98 83.7026C188.98 83.7026 192.556 74.3124 203.725 74.3124C210.655 74.3124 216.461 77.2155 220.488 83.2514L220.939 83.9239L221.382 83.2514C227.196 74.985 234.348 74.3124 238.809 74.3124C251.544 74.3124 260.262 83.9239 260.262 97.5537V135.77H243.721V100.465V100.457ZM359.254 135.761V75.8789H373.557L375.345 84.5965C378.026 79.0118 383.39 75.2148 390.541 75.2148C392.107 75.2148 393.665 75.4362 395.232 75.8874V91.7561C393.222 91.3049 391.435 91.0836 389.425 91.0836C381.38 91.0836 375.796 96.0043 375.796 105.607V135.778H359.263L359.254 135.761ZM67.8534 135.761V75.8789H82.1557L83.9435 84.5965C86.6252 79.0118 91.9885 75.2148 99.1397 75.2148C100.706 75.2148 102.264 75.4362 103.831 75.8874V91.7561C101.821 91.3049 100.034 91.0836 98.0244 91.0836C89.9794 91.0836 84.3947 96.0043 84.3947 105.607V135.778H67.8619L67.8534 135.761ZM323.729 137.328C305.178 137.328 291.548 124.592 291.548 106.041C291.548 89.2788 303.841 74.3124 323.277 74.3124C337.801 74.3124 352.776 85.2605 352.776 105.599C352.776 107.165 352.776 109.174 352.333 111.413H308.532C310.099 118.113 316.126 122.583 323.507 122.583C330.207 122.583 335.349 120.122 339.597 115.653L349.651 125.928C343.173 133.301 333.783 137.328 323.729 137.328ZM322.835 88.8361C315.905 88.8361 310.099 92.8629 308.754 99.3415H336.464C335.128 93.0842 329.535 88.8361 322.835 88.8361ZM137.134 137.328C118.584 137.328 104.954 124.592 104.954 106.041C104.954 89.2788 117.247 74.3124 136.683 74.3124C151.207 74.3124 166.182 85.2605 166.182 105.599C166.182 107.165 166.182 109.174 165.739 111.413H121.938C123.505 118.113 129.541 122.583 136.913 122.583C143.622 122.583 148.755 120.122 153.003 115.653L163.057 125.928C156.579 133.301 147.197 137.328 137.134 137.328ZM136.241 88.8361C129.311 88.8361 123.505 92.8629 122.16 99.3415H149.87C148.525 93.0842 142.941 88.8361 136.241 88.8361ZM911.673 137.319C898.486 137.319 882.396 130.168 882.396 107.821V75.8618H898.928V106.697C898.928 116.972 903.619 121.442 911.664 121.442C919.037 121.442 924.4 116.3 924.4 106.697V75.8618H940.933V107.821C940.933 130.168 924.621 137.319 911.656 137.319M769.305 137.319C777.571 137.319 784.28 133.522 787.855 128.159L789.643 135.753H804.167V75.8704H789.643L787.855 83.6941C784.28 78.1093 778.244 74.9765 769.305 74.9765C753.436 74.9765 739.585 89.0574 739.585 105.812C739.585 122.566 753.436 137.319 769.305 137.319ZM772.659 89.9428C781.377 89.9428 788.077 96.6428 788.077 105.812C788.077 114.98 781.377 121.45 772.659 121.45C763.942 121.45 757.02 114.521 757.02 105.812C757.02 96.6513 763.72 89.9428 772.659 89.9428ZM669.197 135.753V118.99H630.76V44.8224H613.103V135.761H669.197V135.753ZM704.953 137.319C715.007 137.319 724.398 133.301 730.876 125.92L720.822 115.644C716.574 120.114 711.44 122.574 704.732 122.574C697.359 122.574 691.323 118.105 689.766 111.405H733.566C734.009 109.174 734.009 107.157 734.009 105.599C734.009 85.2605 719.034 74.3124 704.51 74.3124C685.066 74.3124 672.781 89.2873 672.781 106.041C672.781 124.592 686.411 137.328 704.962 137.328M704.068 88.8361C710.768 88.8361 716.352 93.0842 717.698 99.3415H689.987C691.323 92.8629 697.138 88.8361 704.068 88.8361ZM978.936 137.328C988.99 137.328 998.38 133.309 1004.86 125.928L994.805 115.653C990.557 120.122 985.423 122.583 978.715 122.583C971.342 122.583 965.306 118.113 963.74 111.413H1007.54C1007.98 109.183 1007.98 107.165 1007.98 105.607C1007.98 85.269 993.009 74.3209 978.485 74.3209C959.041 74.3209 946.747 89.2958 946.747 106.05C946.747 124.6 960.377 137.336 978.927 137.336M978.034 88.8446C984.742 88.8446 990.327 93.0927 991.663 99.35H963.953C965.289 92.8714 971.104 88.8446 978.025 88.8446M843.277 89.9598C851.995 89.9598 858.916 96.6598 858.916 105.829C858.916 114.997 851.986 121.467 843.277 121.467C834.568 121.467 827.638 114.538 827.638 105.829C827.638 96.6683 834.568 89.9598 843.277 89.9598ZM858.022 83.4812C854.446 78.3392 848.189 74.9935 841.259 74.9935C824.275 74.9935 810.424 88.4019 810.424 105.829C810.424 123.255 823.833 137.336 840.817 137.336C847.295 137.336 853.11 135.327 858.022 130.185V134.433C858.022 143.372 852.659 149.408 840.365 149.408C832.542 149.408 826.514 145.611 822.045 141.363L812.885 154.099C820.036 161.029 828.975 165.268 841.489 165.268C850.649 165.268 858.252 162.144 863.836 157.896C871.209 152.09 874.342 144.266 874.342 133.088V75.8704H859.818L858.03 83.4642M455.318 15.7496C463.661 19.572 469.016 24.3991 469.987 25.1312C469.544 22.9688 467.901 12.6082 466.956 6.1551C471.817 9.53487 483.106 17.3671 486.809 19.9126C488.324 15.2473 493.56 0.0255398 493.56 0.0255398C493.56 0.0255398 503.027 15.358 504.644 17.8523C506.619 15.7836 517.942 3.19248 520.871 0C521.364 7.2448 522.037 17.614 522.19 19.1719C522.769 18.3972 527.102 12.3272 534.364 6.72549C531.214 12.9232 529.716 21.4875 529.043 28.3662C521.901 26.3656 514.366 25.293 506.585 25.293C491.661 25.293 477.649 29.2261 465.534 36.1048C463.329 29.473 459.881 21.2066 455.31 15.7496H455.318ZM542.298 102.04L542.281 91.373C542.281 91.373 537.523 89.8406 532.423 85.8905C522.207 87.4399 509.82 97.7154 509.82 97.7154C509.82 97.7154 514.009 105.65 518.572 114.206C526.617 115.312 538.459 105.173 542.281 102.032L542.298 102.04ZM552.583 121.391C552.583 121.391 551.765 116.981 548.266 112.852L540.298 113.048C540.298 113.048 529.546 122.293 522.982 122.506C522.982 122.506 526.6 129.232 528.413 132.739C532.031 131.956 538.382 129.095 540.936 126.133C540.936 126.133 542.63 131.59 542.307 138.017C545.9 135.923 550.854 130.287 552.591 121.382L552.583 121.391ZM555.86 86.3247C551.842 89.7129 548.428 91.5859 548.428 91.5859L548.462 102.304C551.348 105.514 554.183 108.17 556.311 113.014C560.338 105.769 559.572 95.0933 555.86 86.3247ZM556.737 76.7728L557.367 71.9032C557.58 69.2215 556.89 64.7775 553.136 60.1633C548.479 54.9362 536.765 46.5251 531.18 44.5074C531.18 44.5074 530.72 49.8963 528.796 52.4929C517.67 44.4563 512.204 42.4472 512.204 42.4472C499.979 44.1924 492.13 48.9088 487.865 52.6121L491.585 55.779C484.221 58.0435 479.436 64.3774 479.436 64.3774C479.487 64.4881 486.017 65.416 486.017 65.416C486.017 65.416 485.353 73.0865 494.956 77.8965C503.171 82.0084 515.005 76.909 526.14 81.3699C518.81 72.9162 513.77 69.1363 513.77 69.1363C513.77 69.1363 510.859 68.5319 508.807 68.5404C506.253 68.5574 502.448 69.0682 498.259 67.4337C496.267 66.659 493.935 65.2798 492.113 64.1305C492.113 64.1305 497.255 58.8523 504.755 57.686C504.755 57.686 511.523 59.593 516.895 63.5602C520.462 60.0867 524.182 60.1974 524.182 60.1974C524.182 60.1974 520.496 63.6453 521.611 67.8168C526.975 72.6013 532.789 79.4374 532.789 79.4374C538.714 76.1853 551.586 76.9345 554.234 79.9993C550.88 75.6575 546.053 72.0309 542.315 68.9235C541.864 67.2975 537.786 61.6106 537.097 61.0913C537.097 61.0913 540.979 62.2917 544.435 65.3905C545.44 63.9773 547.296 62.53 549.833 61.8915C552.446 64.0795 552.897 67.4337 552.829 67.9956C551.646 69.3917 550.505 69.9706 550.505 69.9706L556.771 76.7557L557.401 71.8861M563.02 80.7229C572.58 98.388 574.904 119.552 568.264 140.639C567.864 140.188 562.807 134.535 560.713 132.22C559.385 152.839 553.315 168.852 535.607 182.38C535.607 182.38 533.921 175.901 532.934 171.849C503.733 193.251 478.628 183.461 471.57 179.945C477.036 154.882 472.805 140.495 469.144 129.521C461.371 142.291 453.411 152.209 445.468 158.909C440.037 146.224 439.62 122.651 444.013 108.723C442.557 109.115 433.975 111.822 429.217 113.269C431.132 100.482 439.577 83.362 448.499 74.8317C446.941 74.5593 442.37 73.9123 438.743 73.3079C440.973 68.7703 447.443 60.3421 457.361 52.4333C457.072 58.0095 459.141 64.6584 465.441 67.8508C461.448 60.8444 460.963 52.1949 465.126 47.7084C469.306 43.1964 476.321 44.7458 480.799 48.2533C479.973 45.8185 478.168 43.0006 475.503 41.1447C487.865 35.3897 502.865 32.061 519.874 34.6831C522.497 36.9732 525.297 40.1912 526.847 42.1833C526.915 40.7531 526.711 38.0118 526.259 35.926C533.215 37.5776 540.477 40.2338 548.002 44.1243C534.602 30.7585 507.445 26.7402 484.783 33.2273C479.47 34.7512 474.431 36.7603 469.689 39.1356C464.691 39.1951 461.473 42.2514 459.635 44.9586C445.136 54.5786 434.503 67.2379 429.378 77.8454C430.519 78.0923 433.95 78.518 437.125 79.0628C430.647 88.3083 422.176 105.812 422.729 121.519C424.202 121.076 432.12 118.65 436.002 117.39C433.924 131.249 434.529 154.533 443.519 167.848C454.842 159.828 461.405 151.4 466.862 143.798C468.267 150.643 469.638 162.808 464.811 182.967C468.727 185.99 497.11 200.896 529.214 181.418L531.895 192L535.369 189.744C554.907 177.051 562.407 159.905 565.029 145.943C565.931 146.939 569.481 150.83 570.758 152.124C575.662 138.749 585.461 106.586 562.994 80.7314L563.02 80.7229Z" fill="white"/>
</g>
<defs>
<clipPath id="clip0_5685_187">
<rect width="1008" height="192" fill="white"/>
</clipPath>
</defs>
</svg>
